# xmcd
#
# Track frame offsets: 
#        150
#        10032
#        25605
#        55857
#        126390
#        174437
#
# Disc length: 3452 seconds
#
# Revision: 0
# Processed by: cddbd v1.5.2PL0 Copyright (c) Steve Scherf et al.
# Submitted via: ExactAudioCopy v1.0b1
#
DISCID=400d7a06
DTITLE=Led Zeppelin  - Avocado Club-Winterland Ballroom - San Francisc
DTITLE=o CA - D 1
DYEAR=1900
DGENRE=
TTITLE0=Introduction
TTITLE1=Communication Breakdown
TTITLE2=I Can't Quit You
TTITLE3=Dazed And Confused
TTITLE4=You Shook Me
TTITLE5=How Many More Times
EXTD=
EXTT0=
EXTT1=
EXTT2=
EXTT3=
EXTT4=
EXTT5=
PLAYORDER=
